<svg width="47" height="44" viewBox="0 0 47 44" fill="none" xmlns="http://www.w3.org/2000/svg">
<path d="M0.275391 16.8934C0.9585 14.7369 2.40803 12.6367 3.45102 10.6147C4.67758 8.23629 5.63725 5.58509 7.19083 3.3999C8.43744 1.6465 9.8524 1.09966 11.8948 0.751194C13.3219 0.693808 14.7804 0.787286 16.2099 0.815703C16.3188 1.44983 16.4699 2.07586 16.6624 2.68983C17.3583 4.87225 18.9385 6.77224 21.0024 7.7772C23.116 8.8067 25.6299 8.88967 27.8348 8.09974C30.745 7.0571 32.1426 4.94174 33.3509 2.26081C35.2246 2.37662 37.1363 2.4188 38.8573 3.26404C39.9134 3.77222 40.7987 4.57598 41.4065 5.57783C42.6254 7.55007 43.0814 10.1145 43.7963 12.3031C44.6357 14.8734 45.5791 17.4068 46.4043 19.9836C44.2848 20.8016 42.1203 21.5217 39.9801 22.2843C38.9191 19.6047 38.2696 16.5418 36.94 14.0137C36.605 22.8042 36.4947 31.667 35.8859 40.4399C35.8621 41.3311 35.8057 42.2244 35.7646 43.115C26.145 42.744 16.4405 42.3275 6.84894 41.5151C8.17955 31.8928 9.46211 22.2635 10.6963 12.6284C9.2616 15.2046 8.01431 17.8054 6.92949 20.5471C4.66894 19.4246 2.47856 18.1251 0.275391 16.8934Z" fill="#9E9E9E"/>
</svg>
