<svg width="47" height="50" viewBox="0 0 47 50" fill="none" xmlns="http://www.w3.org/2000/svg">
<path d="M46.925 9.66529C45.9712 10.1583 45.4599 11.4616 45.144 12.4485C44.549 14.3053 44.2935 16.8981 45.2048 18.6709C45.3192 18.8938 45.453 19.1009 45.5879 19.3114C42.4333 23.8744 38.8207 28.103 34.8071 31.9317C32.3115 34.3246 29.5942 36.4815 27.0163 38.7846C23.2703 42.1631 19.7441 45.7778 16.4592 49.6068C14.9592 48.2651 13.4499 46.9107 12.1044 45.4103C14.4359 42.4061 31.3649 19.4297 31.1675 17.5304C30.9466 17.3703 30.8664 17.2275 30.5746 17.2628C28.2467 17.5414 18.9023 25.9185 16.8025 27.833C12.9224 31.4792 9.01004 35.2712 5.6505 39.412C4.07616 37.8159 2.49318 36.2526 0.758789 34.8269C2.91978 31.8179 5.47488 29.1011 7.67355 26.1145C13.4672 18.2453 18.8588 9.62796 26.1341 3.03159C28.7314 3.66077 31.0898 3.76725 33.4768 2.31253C34.468 1.70859 35.3457 0.92073 36.1488 0.088623C37.6948 1.48181 39.2926 2.84491 40.7905 4.28822C39.3362 6.20134 34.1745 11.391 33.5937 13.0912L33.7174 13.234C34.3497 13.0127 34.8493 12.6632 35.3433 12.2097C36.0962 11.5186 36.7251 10.5399 37.4037 9.76382C38.763 8.20884 40.2052 6.71056 41.513 5.11341C43.0749 6.50487 45.1291 8.66137 46.925 9.66529Z" fill="url(#paint0_linear_297_4515)"/>
<defs>
<linearGradient id="paint0_linear_297_4515" x1="23.8419" y1="0.088623" x2="23.8419" y2="49.6068" gradientUnits="userSpaceOnUse">
<stop stop-color="#FEFEFE"/>
<stop offset="1" stop-color="#A7C1FE"/>
</linearGradient>
</defs>
</svg>
