<svg width="44" height="44" viewBox="0 0 44 44" fill="none" xmlns="http://www.w3.org/2000/svg">
<path d="M-0.0078125 9.44902C3.21518 6.54615 6.51111 3.72244 9.59893 0.67334C10.0774 0.907727 10.4411 1.45637 10.8061 1.8522C12.8323 4.04672 15.6456 5.51284 18.6733 5.58509C21.8818 5.66149 23.9812 4.1812 26.175 2.05928C27.8113 3.54822 29.7935 4.79275 31.5829 6.09536C35.5367 8.97264 39.571 11.8005 43.372 14.8786C41.2923 17.1095 38.9118 19.1436 36.672 21.2119C34.1387 23.5516 31.6334 26.0396 28.8809 28.1201C28.7792 28.0133 28.6793 27.9044 28.5732 27.802C26.5048 25.8039 24.1243 24.0138 21.9409 22.1356C20.5691 20.9561 19.2627 19.5598 17.8201 18.4892C17.4799 18.2368 17.2224 18.0681 16.7847 18.0736L16.6226 18.4217C17.203 19.7963 18.9218 21.3906 19.9074 22.5961C21.9668 25.2235 24.04 27.855 26.2718 30.3385C23.6839 32.9748 20.9757 35.5126 18.3065 38.067C16.2689 40.0164 14.2002 42.1892 11.8982 43.8188C10.2464 41.6748 8.81729 39.2223 7.33215 36.9525C4.96028 33.3274 2.49785 29.7027 0.318879 25.9598C2.00487 24.4363 3.12565 22.7638 3.57229 20.5046C4.43448 16.1408 2.29319 12.8939 -0.0078125 9.44902Z" fill="#979797"/>
</svg>
