<svg width="56" height="57" viewBox="0 0 56 57" fill="none" xmlns="http://www.w3.org/2000/svg">
<path d="M19.7617 6.69161C19.5784 6.12224 19.4315 5.63895 19.4166 5.03846C20.0645 4.40686 34.2846 1.12614 36.0571 0.976447C36.5974 0.964002 37.0105 0.937381 37.5145 1.17523C37.9467 1.8528 40.3652 12.6163 40.5491 13.7446C38.9229 14.1982 37.3054 14.6818 35.6975 15.1959C41.6969 21.9962 48.7464 28.2452 55.0607 34.8156C47.6115 41.608 40.5865 49.0385 33.4895 56.2084C31.3043 54.0035 29.1606 51.7627 26.9561 49.5754C22.5435 45.2247 18.3788 40.5342 13.8356 36.3395C12.9772 37.7278 12.3093 39.2606 11.5923 40.7268C7.98873 39.1275 4.37164 37.3354 0.905273 35.4562C1.25409 34.0609 5.93767 19.5694 6.29029 19.2071C6.67921 19.1763 7.03528 19.1556 7.3796 18.9527C8.20549 18.4663 9.13474 17.2082 9.84723 16.5068L19.7617 6.69161ZM35.2104 1.81823C31.9314 2.52727 28.6849 3.4102 25.4326 4.23263C23.748 4.65888 21.9047 4.95687 20.2764 5.53523C21.1783 9.39881 22.5145 12.9851 20.2235 16.69C18.8404 18.926 16.5839 20.4229 14.0247 20.9564C11.3507 21.5136 9.40888 20.5228 6.9008 19.9061C5.11663 24.8905 3.72103 30.0273 2.00599 35.0427C5.07688 36.4798 8.07274 38.1385 11.1609 39.521C11.8772 37.9204 12.6108 36.3146 13.5815 34.8481C16.7001 37.2352 21.0017 42.2403 23.9132 45.2147C26.2816 47.5503 28.6241 49.9204 31.0274 52.2197L44.3491 38.7836C46.4959 36.635 48.6797 34.0592 51.1097 32.2557C49.2377 30.3512 34.6003 15.8877 34.3424 14.8509C35.7131 13.857 37.9861 13.633 39.6036 13.1044C38.7694 9.2868 37.7683 5.51588 36.969 1.68756L35.2104 1.81823ZM19.6635 7.80235C16.0491 11.8588 12.0763 15.6114 8.2079 19.4225L10.0063 19.9528C12.5489 20.4668 14.8046 20.2909 17.0181 18.7891C18.8193 17.5674 20.1571 15.6349 20.5346 13.4774C20.8039 11.938 20.5823 9.10185 19.6635 7.80235ZM51.7492 32.87C45.1259 39.6409 38.2499 46.1823 31.5854 52.918C32.2263 53.541 32.8538 54.2047 33.5517 54.763C36.8677 52.0047 39.8529 48.6123 42.8875 45.5441C46.471 41.9212 50.2015 38.4202 53.7432 34.7606C53.0888 34.1263 52.4475 33.4559 51.7492 32.87Z" fill="#979797"/>
</svg>
