<svg width="41" height="42" viewBox="0 0 41 42" fill="none" xmlns="http://www.w3.org/2000/svg">
<path d="M1.6756 8.00781L1.90721 7.50066C2.89454 7.24381 4.09656 7.4661 5.12364 7.5062C7.73059 7.81803 10.4243 7.86711 13.0485 7.99675C14.9115 8.15715 16.9066 8.43545 18.7686 8.33416C20.3557 8.50044 26.0491 9.23471 27.2369 8.83024C27.0246 8.45273 26.8186 8.36562 26.4694 8.15128C25.3065 7.43741 24.3572 6.81445 23.4933 5.72341C24.4208 4.02186 25.3812 2.33863 26.3737 0.674072C30.5657 2.45825 34.6868 4.42979 38.8034 6.38059C39.3026 8.86481 39.7285 11.3957 40.3511 13.8509C37.6049 14.5872 35.2852 15.6406 33.7551 18.1929C32.7934 19.7966 32.3564 21.716 32.8158 23.5541C33.267 25.36 34.5077 27.1612 36.1232 28.1077C37.0925 28.676 38.1507 29.0898 39.1986 29.4857C39.4368 29.5759 39.3493 29.534 39.5598 29.7235C38.8401 32.5092 37.8538 35.3854 37.3701 38.2136C32.8656 39.4143 28.3597 40.5775 23.8725 41.8438C23.0826 40.0158 22.2391 38.1943 21.5387 36.3302C21.5795 36.2932 21.6196 36.2559 21.6607 36.2196C22.8672 35.1497 25.7497 34.0317 26.1324 33.5774C25.4406 33.0543 19.4288 33.1377 18.2185 33.127C16.6608 33.0516 15.1017 33.0139 13.5422 33.0149C9.31045 32.6499 4.94009 32.6551 0.691051 32.4991L0.544806 32.2613C0.378869 30.3019 0.720429 28.1796 0.813768 26.2067L0.946171 24.2531C1.02257 23.1714 1.01878 22.0741 1.04574 20.9897C1.45955 18.6344 1.38763 15.9763 1.50794 13.5712C1.61338 11.7317 1.80144 9.8473 1.6756 8.00781Z" fill="url(#paint0_linear_297_4525)"/>
<defs>
<linearGradient id="paint0_linear_297_4525" x1="20.4256" y1="0.674072" x2="20.4256" y2="41.8438" gradientUnits="userSpaceOnUse">
<stop stop-color="#FEFEFE"/>
<stop offset="1" stop-color="#A7C1FE"/>
</linearGradient>
</defs>
</svg>
