<svg width="53" height="55" viewBox="0 0 53 55" fill="none" xmlns="http://www.w3.org/2000/svg">
<path d="M0.398438 27.1814C11.9128 18.6488 23.0586 9.57751 34.2839 0.669434C35.4901 0.97227 50.1375 16.3236 52.2871 18.3463L34.483 44.9447C32.2519 48.214 30.188 51.643 27.8172 54.8093C22.0823 52.1993 18.1966 48.3616 14.5477 43.2601C18.3577 38.4334 22.5017 33.7757 26.5246 29.1239C27.6882 27.7421 34.4792 20.3928 34.8066 19.6776L34.668 19.4632C34.2836 19.4757 34.0592 19.5524 33.7543 19.7937C31.7572 21.3753 29.9173 23.3994 28.0554 25.1518C22.5559 30.3277 17.2331 35.7303 11.5781 40.7305C6.87103 36.9707 2.45019 33.029 0.398438 27.1814Z" fill="url(#paint0_linear_297_4536)"/>
<defs>
<linearGradient id="paint0_linear_297_4536" x1="26.3428" y1="0.669434" x2="26.3428" y2="54.8093" gradientUnits="userSpaceOnUse">
<stop stop-color="#FEFEFE"/>
<stop offset="1" stop-color="#A7C1FE"/>
</linearGradient>
</defs>
</svg>
