<svg width="94" height="127" viewBox="0 0 94 127" fill="none" xmlns="http://www.w3.org/2000/svg">
<path d="M26.5807 25.8988C26.5271 19.244 26.7363 13.8002 31.125 8.36229C34.731 3.89443 39.5162 1.6 45.1577 0.973585C45.8612 0.887159 46.5983 0.906515 47.307 0.903058C52.7141 0.857425 57.91 3.00113 61.7124 6.84604C67.4238 12.602 67.2827 18.3652 67.2409 25.8165C69.5118 25.849 85.7105 25.6354 86.6808 26.4301C87.1783 27.7293 87.5188 39.9848 87.6868 42.3888L90.3885 83.765C91.2427 95.6789 92.3307 107.598 92.9962 119.523C93.0961 121.308 93.5154 124.014 92.9235 125.678C91.2216 125.928 89.406 125.821 87.6855 125.826L79.2351 125.846L48.6421 125.839L17.7013 125.884C12.6506 125.893 7.40455 126.195 2.38252 125.844C1.74711 125.8 1.17946 125.778 0.689944 125.359C0.41027 124.642 0.50707 123.793 0.541294 123.035C0.850353 116.22 1.56665 109.417 2.033 102.611L4.72257 61.1837C5.19826 53.6269 5.73272 46.0744 6.32526 38.5259C6.55481 35.1802 6.53095 29.0948 7.4481 26.1574C9.73976 25.4618 14.0777 25.8808 16.5591 25.8974L26.5807 25.8988ZM46.1146 3.40076C41.1711 3.85606 36.698 5.75189 33.4574 9.61305C29.3238 14.5386 29.1306 19.8002 29.143 25.9223L48.3334 25.9361C53.7523 25.9372 59.2272 26.0865 64.6381 25.8345C64.9064 19.5897 64.7875 13.9461 60.3155 9.09588C56.9224 5.41621 52.3446 3.53455 47.372 3.37553C46.9526 3.36274 46.5329 3.37103 46.1146 3.40076ZM9.51333 28.356L9.16348 33.2809L26.5226 33.3293C26.7262 31.7083 26.6094 29.976 26.6066 28.3401L9.51333 28.356ZM29.1361 28.3685L29.1399 33.3055L64.6194 33.283L64.6772 28.3823L29.1361 28.3685ZM67.179 28.3636C67.1693 30.0002 67.1393 31.6395 67.1593 33.2757C73.0052 33.301 78.851 33.2941 84.6968 33.2553L84.4995 28.3827L67.179 28.3636ZM9.20255 35.6365C8.61243 40.3188 8.4821 45.1157 8.16094 49.8273L6.34219 76.7175L4.49407 104.284C4.03048 110.593 3.36085 116.942 3.1759 123.265L90.7079 123.257L90.178 115.295C89.0603 99.7797 87.8299 84.2535 86.9363 68.7241L85.5372 46.4121C85.308 42.8448 85.2973 39.1727 84.8583 35.6338C78.9644 35.5826 73.0698 35.5733 67.1759 35.6065C67.1763 37.3772 67.6354 41.3061 66.8848 42.682C66.498 43.0069 66.2975 43.0699 65.7973 43.1265C65.3579 42.9599 65.1425 42.877 64.9188 42.4431C64.1949 41.0378 64.5935 37.2365 64.6205 35.5854L29.1427 35.6486C29.114 37.2565 29.5593 41.2273 28.3932 42.3121C28.1564 42.5323 27.9511 42.5178 27.6479 42.5786C27.2244 42.4144 27.0187 42.3252 26.8023 41.9069C26.031 40.419 26.5461 37.3066 26.5344 35.603C20.7604 35.6123 14.9751 35.5415 9.20255 35.6365Z" fill="#979797"/>
</svg>
