<svg width="58" height="63" viewBox="0 0 58 63" fill="none" xmlns="http://www.w3.org/2000/svg">
<path d="M56.6407 45.2575L56.9988 46.5958C57.2486 47.5378 57.1458 48.5385 56.7099 49.4101C56.274 50.2817 55.5349 50.9642 54.6315 51.3294L27.7487 62.2067C26.8454 62.5725 25.8397 62.596 24.9204 62.2728C24.001 61.9496 23.2313 61.3019 22.7557 60.4513L22.0833 59.2428C22.0138 59.1184 21.9716 58.9805 21.9597 58.8385C21.9477 58.6964 21.9663 58.5535 22.0141 58.4192C22.062 58.2849 22.1379 58.1624 22.237 58.0599C22.336 57.9574 22.4558 57.8772 22.5884 57.8248L55.2996 44.5892C55.4309 44.536 55.572 44.5114 55.7136 44.5169C55.8552 44.5224 55.9939 44.5579 56.1207 44.6211C56.2475 44.6843 56.3595 44.7737 56.4491 44.8834C56.5387 44.9931 56.604 45.1206 56.6407 45.2575ZM27.9376 51.3427C26.8804 49.9186 25.3807 48.8854 23.6734 48.405C21.9661 47.9245 20.1477 48.0239 18.5029 48.6876L17.6709 49.0242C17.5384 49.0767 17.4186 49.1568 17.3195 49.2593C17.2205 49.3618 17.1445 49.4843 17.0967 49.6186C17.0489 49.7529 17.0303 49.8959 17.0422 50.0379C17.0542 50.1799 17.0963 50.3178 17.1659 50.4422L19.1297 53.9626C19.2493 54.1764 19.4431 54.3389 19.6744 54.4193C19.9058 54.4996 20.1586 54.4923 20.3849 54.3987L27.9376 51.3427ZM52.7066 34.8481L51.8746 35.1847C50.2312 35.8515 48.8552 37.0446 47.9625 38.5771C47.0697 40.1096 46.7104 41.895 46.9409 43.6535L54.4936 40.5976C54.7214 40.5075 54.9081 40.337 55.0185 40.1183C55.1289 39.8997 55.1552 39.6481 55.0924 39.4114L54.0556 35.5159C54.019 35.3781 53.9535 35.2497 53.8633 35.1393C53.7731 35.029 53.6604 34.9391 53.5326 34.8759C53.4049 34.8127 53.2651 34.7775 53.1226 34.7727C52.9802 34.7679 52.8383 34.7936 52.7066 34.8481ZM1.15374 21.7266L14.2271 45.1587C14.3467 45.3725 14.5405 45.535 14.7718 45.6154C15.0032 45.6957 15.256 45.6884 15.4823 45.5948L17.0026 44.9796C19.6317 43.9202 22.5506 43.8241 25.2437 44.7084C27.9367 45.5928 30.2305 47.4006 31.7197 49.8124L35.5853 48.2483L31.8598 39.0409C31.6604 38.565 31.6482 38.0313 31.8258 37.5468C32.0034 37.0623 32.3576 36.6628 32.8173 36.4285C33.0641 36.3091 33.3328 36.2417 33.6068 36.2304C33.8807 36.2192 34.1541 36.2644 34.4098 36.3633C34.6655 36.4621 34.8982 36.6125 35.0934 36.8051C35.2885 36.9976 35.442 37.2283 35.5443 37.4827L39.2932 46.748L43.1588 45.1839C42.5518 42.4151 42.9431 39.5209 44.2634 37.0126C45.5838 34.5044 47.7482 32.5436 50.3743 31.4767L51.9015 30.8588C52.1293 30.7687 52.3161 30.5982 52.4264 30.3795C52.5368 30.1609 52.5631 29.9093 52.5003 29.6726L45.5938 3.74523C45.4063 3.0423 45.0307 2.40382 44.5074 1.89848C43.984 1.39315 43.3328 1.0401 42.6237 0.877346C41.7912 0.69336 40.9222 0.770911 40.1354 1.0994L30.7959 4.87833C29.9712 5.21185 29.2813 5.81074 28.8351 6.58031C28.3889 7.34987 28.212 8.24621 28.3324 9.12759L31.4436 32.6801L17.3091 13.604C16.784 12.883 16.033 12.3581 15.1754 12.1129C14.3178 11.8676 13.4028 11.9161 12.5759 12.2505L3.23642 16.0295C2.44235 16.3387 1.76321 16.8857 1.29191 17.5957C0.894946 18.2064 0.672275 18.9139 0.647928 19.6419C0.62358 20.3699 0.798471 21.0907 1.15374 21.7266Z" fill="#CCDAFD"/>
</svg>
