<svg width="25" height="19" viewBox="0 0 25 19" fill="none" xmlns="http://www.w3.org/2000/svg">
          <path d="M12.4025 11.5779C13.1277 11.5779 13.8232 11.359 14.3359 10.9692C14.8487 10.5795 15.1368 10.0509 15.1368 9.49977C15.1368 9.43891 15.1332 9.37861 15.1263 9.31905L12.1647 11.5699C12.243 11.5751 12.3221 11.5779 12.4025 11.5779ZM21.4532 3.07168L20.4103 2.27977C20.3736 2.25195 20.324 2.23633 20.2722 2.23633C20.2204 2.23633 20.1708 2.25195 20.1341 2.27977L17.4652 4.30872C15.9929 3.73687 14.3378 3.45094 12.5001 3.45094C7.80773 3.45094 4.30675 5.30827 1.99718 9.02291C1.90435 9.17231 1.8562 9.33548 1.8562 9.5007C1.8562 9.66592 1.90435 9.82908 1.99718 9.97848C2.92003 11.4558 4.03128 12.6399 5.33092 13.5308L2.74816 15.4929C2.71156 15.5208 2.691 15.5585 2.691 15.5979C2.691 15.6372 2.71156 15.675 2.74816 15.7028L3.79039 16.4949C3.82702 16.5227 3.87668 16.5383 3.92846 16.5383C3.98023 16.5383 4.02989 16.5227 4.06652 16.4949L21.4532 3.28172C21.4714 3.26794 21.4858 3.25157 21.4956 3.23355C21.5055 3.21553 21.5105 3.19621 21.5105 3.1767C21.5105 3.1572 21.5055 3.13788 21.4956 3.11986C21.4858 3.10184 21.4714 3.08547 21.4532 3.07168ZM8.10558 9.49977C8.10551 8.93572 8.29768 8.38127 8.66336 7.89044C9.02904 7.39961 9.55577 6.98913 10.1922 6.69899C10.8287 6.40886 11.5532 6.24896 12.2951 6.23487C13.0371 6.22078 13.7712 6.35298 14.4259 6.6186L13.2389 7.52073C12.7602 7.40423 12.2485 7.3902 11.76 7.48018C11.2715 7.57015 10.825 7.76065 10.4696 8.03078C10.1141 8.3009 9.86348 8.64022 9.74509 9.01149C9.62671 9.38275 9.64517 9.77163 9.79845 10.1355L8.61144 11.0376C8.27833 10.5646 8.10454 10.0363 8.10558 9.49977Z" fill="#8B8B8B"/>
          <path d="M23.0029 9.02114C22.1436 7.64562 21.1207 6.52399 19.9343 5.65625L16.4153 8.33091C16.7119 8.92023 16.7777 9.56223 16.6046 10.1793C16.4315 10.7964 16.027 11.3623 15.4399 11.8084C14.8529 12.2546 14.1084 12.562 13.2964 12.6936C12.4844 12.8251 11.6397 12.7751 10.8643 12.5497L7.87939 14.8182C9.26416 15.3052 10.8044 15.5487 12.5 15.5487C17.1924 15.5487 20.6934 13.6914 23.0029 9.97671C23.0958 9.82732 23.1439 9.66415 23.1439 9.49893C23.1439 9.3337 23.0958 9.17054 23.0029 9.02114Z" fill="#8B8B8B"/>
          </svg>
          